<svg width="185" height="185" viewBox="0 0 185 185" fill="none" xmlns="http://www.w3.org/2000/svg">
<path d="M92.6067 3.33032C43.3598 3.33032 3.43701 43.2531 3.43701 92.5C3.43701 108.229 7.66202 122.924 14.6581 135.837C23.5988 152.341 58.1027 89.1038 76.5048 102.886C94.9069 116.667 32.8 161.542 50.0559 170.737C62.7935 177.524 77.1686 181.67 92.6067 181.67C141.854 181.67 181.776 141.747 181.776 92.5C181.776 43.2527 141.854 3.33032 92.6067 3.33032Z" fill="#E5AA6E"/>
<path d="M99.3034 163.17C90.5712 163.17 83.4924 156.824 83.4924 148.995C83.4924 141.167 90.5712 134.821 99.3034 134.821C108.036 134.821 115.114 141.167 115.114 148.995C115.114 156.824 108.036 163.17 99.3034 163.17Z" fill="white"/>
<path d="M157.523 108.135C162.114 115.189 159.687 124.91 152.102 129.848C144.516 134.787 134.644 133.072 130.052 126.019C125.46 118.965 127.887 109.244 135.474 104.306C143.059 99.367 152.931 101.082 157.523 108.135Z" fill="#FFD469"/>
<path d="M160.138 57.4883C160.715 65.8849 153.863 73.1949 144.833 73.816C135.803 74.4372 128.014 68.1338 127.437 59.7372C126.859 51.3407 133.712 44.0307 142.742 43.4095C151.772 42.7884 159.561 49.0918 160.138 57.4883Z" fill="#0074A8"/>
<path d="M103.998 36.2585C104.576 44.6551 96.1866 52.071 85.2608 52.8222C74.335 53.5734 65.0098 47.3759 64.4324 38.9793C63.855 30.5828 72.244 23.1669 83.1698 22.4157C94.0956 21.6645 103.421 27.862 103.998 36.2585Z" fill="#FF473E"/>
<path d="M56.3043 72.7339C56.8817 81.1305 50.0295 88.4405 40.9992 89.0616C31.9689 89.6828 24.1805 83.3794 23.6031 74.9828C23.0257 66.5863 29.8779 59.2763 38.9082 58.6551C47.9385 58.034 55.7269 64.3374 56.3043 72.7339Z" fill="#009B51"/>
</svg>
