<svg width="185" height="185" viewBox="0 0 185 185" fill="none" xmlns="http://www.w3.org/2000/svg">
<path d="M170.59 147.884L104.482 177.773C100.406 179.696 96.1566 179.508 92.2542 177.253L8.80191 134.877C6.41714 133.344 5.70894 131.104 5.85347 129.543C5.998 127.982 6.35933 126.291 10.5507 125.077L16.7367 122.794L100.449 168.422L159.938 144.112L170.59 147.884Z" fill="#01579B"/>
<path d="M103.687 172.99C102.034 173.765 100.22 174.135 98.3948 174.07C96.57 174.005 94.7871 173.505 93.1937 172.614L11.7215 131.567C10.5652 130.931 10.2184 129.471 10.9121 128.344C12.7043 125.381 15.9996 116.015 10.5652 108.24L102.574 152.538L103.687 172.99Z" fill="#F5F5F5"/>
<path d="M167.064 144.502L103.687 172.99C101.591 173.9 97.4141 175.519 92.6012 172.281C96.4024 172.556 99.0762 170.981 100.449 168.422C101.793 165.936 101.389 161.861 99.7555 159.563C98.7582 158.175 96.0844 155.964 94.9137 154.721L163.465 127.91C169.535 125.41 175.23 129.153 176.14 133.706C177.152 138.851 170.59 143.057 167.064 144.502Z" fill="#94C6D6"/>
<path d="M170.229 125.684L104.8 154.88C100.681 156.513 96.07 156.296 92.1243 154.302L8.52739 111.838C7.71802 111.434 6.51841 110.321 6.04145 108.803C5.26099 106.274 6.2438 103.094 9.20669 102.082L99.7989 148.26L161.832 121.71L170.229 125.684Z" fill="#01579B"/>
<path d="M175.157 129.919L168.032 127.332L153.348 128.185L104.814 149.85C100.695 151.483 96.0843 151.266 92.1386 149.272L8.52731 106.823C6.37379 105.725 6.83629 102.531 9.2066 102.082L69.4617 75.1274C71.1816 74.8094 72.9449 74.9973 74.5492 75.6766L160.531 116.666C160.531 116.666 174.189 126.017 175.157 129.919Z" fill="#0091EA"/>
<path d="M152.524 128.604C152.524 128.604 161.572 125.063 168.682 125.381C175.793 125.699 178.265 130.685 178.265 130.685C176.921 124.571 170.605 121.45 170.605 121.45L76.6594 74.1445C76.009 73.8699 73.6098 73.3063 69.9243 74.8238C66.9469 76.0523 57.22 80.6051 57.22 80.6051L152.524 128.604Z" fill="#616161"/>
<path d="M178.67 131.841C177.99 129.139 176.314 126.248 173.221 124.846C169.145 123.01 163.335 123.487 159.62 125.424L152.524 128.575V133.576L161.499 129.587C170.229 125.699 174.102 131.523 174.435 132.896C175.822 138.49 173.134 141.727 165.199 145.369L152.307 151.18V156.209L167.136 149.604C173.698 146.974 181.184 142.031 178.67 131.841Z" fill="#424242"/>
<path d="M47.7098 130.526L22.7493 96.0265L26.6661 94.2777L54.7485 132.868L47.7098 130.526ZM79.7235 146.425L75.2719 142.898L152.524 127.13V129.659L141.698 133.764L79.7235 146.425Z" fill="#01579B"/>
<path d="M21.3906 66.7445L118.964 50.4414L161.586 97.3707C163.739 99.6398 162.569 103.398 159.505 104.019L58.7664 124.687L21.3906 66.7445Z" fill="#9CCC65"/>
<path d="M159.505 99.9723L59.4602 120.236L59.1422 125.005L159.505 104.424C162.338 103.831 163.523 100.594 161.976 98.3102C161.427 99.1196 160.589 99.7555 159.505 99.9723ZM164.896 121.84C165.951 123.516 164.997 125.728 163.06 126.118L70.9649 144.791C65.4293 145.933 59.9949 142.305 59.5035 136.669C59.0844 131.899 62.3074 127.578 67.0047 126.595L155.573 106.707L164.896 121.84Z" fill="#689F38"/>
<path d="M80.3449 115.77L43.6629 63.2758L22.7347 68.8113C17.8929 73.6242 19.6996 81.5301 19.6996 81.5301C19.6996 81.5301 51.7421 132.954 56.8007 139.53C61.8593 146.107 69.2449 145.08 69.2449 145.08L81.7179 142.566L80.4171 119.296L80.3449 115.77Z" fill="#616161"/>
<path d="M80.3449 116.116L62.7265 119.759C57.9136 120.843 57.0464 125.366 57.0464 125.366L14.5109 64.4176C14.5109 64.4176 8.45502 71.7453 12.473 77.9746L56.8007 139.53C61.6425 146.425 69.2449 145.138 69.2449 145.138L81.7179 142.623L80.4316 119.816L80.3449 116.116Z" fill="#424242"/>
<path d="M159.346 119.961C159.794 120.944 159.216 122.085 158.161 122.302L70.0977 140.369C64.5622 141.51 60.6454 137.839 60.8477 132.839C61.1079 126.523 64.6489 123.849 69.3317 122.88L157.828 104.8C157.828 104.8 154.822 108.182 157.12 114.512C157.9 116.694 158.739 118.631 159.346 119.961Z" fill="#B9E4EA"/>
<path d="M65.3426 120.973L27.6055 67.5828" stroke="#424242" stroke-width="2.071" stroke-miterlimit="10"/>
<path d="M68.3055 98.209L19.7719 73.7543L17.8063 77.6277L73.8844 106.202L68.3055 98.209Z" fill="#424242"/>
<path d="M157.236 92.5433L153.68 88.641L99.0039 113.732L68.3054 98.5414L73.5375 106.028L93.873 116.42L109.02 114.093L157.236 92.5433Z" fill="#689F38"/>
<path d="M170.576 82.8887L104.482 112.778C100.406 114.7 96.1566 114.512 92.2543 112.257L8.80191 69.8809C6.41714 68.3489 5.70894 66.1086 5.85347 64.5477C5.998 62.9867 6.35933 61.2957 10.5507 60.0817L14.4675 58.6364L100.203 100.709L169.824 71.9043L170.576 82.8887Z" fill="#C62828"/>
<path d="M103.672 107.994C102.019 108.769 100.205 109.14 98.3804 109.074C96.5556 109.009 94.7727 108.51 93.1793 107.618L11.7071 66.5711C10.5508 65.9352 10.204 64.4754 10.8977 63.3481C12.6899 60.3852 15.9852 51.0196 10.5508 43.2438L100.507 89.0024L103.672 107.994Z" fill="#F5F5F5"/>
<path d="M167.049 79.5067L103.672 107.994C101.577 108.904 97.3996 110.523 92.5867 107.286C96.3878 107.56 99.0617 105.985 100.435 103.427C101.779 100.941 101.374 96.8649 99.741 94.5668C98.7437 93.1793 96.0699 90.968 94.8992 89.725L163.45 62.9145C169.521 60.4141 175.215 64.1575 176.126 68.7102C177.137 73.8555 170.576 78.0614 167.049 79.5067Z" fill="#94C6D6"/>
<path d="M170.229 60.6886L104.8 89.884C100.68 91.5172 96.0699 91.3004 92.1242 89.3058L8.51291 46.8426C7.64572 46.409 6.34494 45.2961 5.9258 43.7207C5.30431 41.3793 6.11369 38.3008 9.1922 37.0867L85.8082 20.8558L170.229 60.6886Z" fill="#C62828"/>
<path d="M175.143 64.9235L168.018 62.3364L153.333 63.1891L104.8 84.8543C100.68 86.4875 96.0699 86.2707 92.1242 84.2762L8.51289 41.8129C6.35937 40.7145 7.12539 37.8094 9.19219 37.0723L69.4617 10.1317C71.1816 9.81371 72.9449 10.0016 74.5492 10.6809L160.531 51.67C160.531 51.67 174.175 61.0067 175.143 64.9235Z" fill="#F44336"/>
<path d="M152.524 63.5938C152.524 63.5938 160.054 60.9489 167.165 61.2668C174.276 61.5848 178.279 65.675 178.279 65.675C176.82 59.1422 170.619 56.4395 170.619 56.4395L76.6738 9.1344C76.0234 8.85979 73.6242 8.29612 69.9387 9.8137C66.9613 11.0422 57.2344 15.5949 57.2344 15.5949L152.524 63.5938Z" fill="#616161"/>
<path d="M161.123 60.5008L64.9957 12.0106L68.1754 10.5797L165.936 59.5758L161.123 60.5008Z" fill="#424242"/>
<path d="M178.655 66.8457C177.976 64.143 176.834 61.527 173.611 60.1684C169.492 58.434 165.734 58.0727 159.606 60.4286L152.509 63.5793V68.5801L161.485 64.5911C166.038 62.452 172.744 62.9145 174.42 67.9008C176.256 73.3641 173.12 76.7317 165.185 80.3739L152.293 86.184V91.2137L167.122 84.6086C173.698 81.9782 181.184 77.0352 178.655 66.8457Z" fill="#424242"/>
</svg>
