<svg width="185" height="185" viewBox="0 0 185 185" fill="none" xmlns="http://www.w3.org/2000/svg">
<path d="M57.8848 116.362V49.3864C57.8848 24.8594 66.5855 7.02426 76.6305 6.11372C85.3313 5.3188 93.1793 8.23833 102.603 14.5399C116.16 23.602 127.115 37.795 127.115 52.277V116.362C127.115 116.362 116.94 118.443 92.5 118.443C68.0598 118.443 57.8848 116.362 57.8848 116.362Z" fill="#C62828"/>
<path d="M78.3505 36.4363C89.8841 55.182 107.199 59.518 117.302 55.182C124.441 52.118 125.338 46.7992 123.068 40.7578C114.411 17.6906 88.4388 3.26639 76.9052 6.14256C69.7653 7.93475 68.6669 20.7113 78.3505 36.4363Z" fill="#F44336"/>
<path d="M98.7726 53.2453C99.8566 53.9824 98.8449 54.7918 97.6164 54.3293C92.8468 52.5515 84.8398 50.109 76.6449 40.2808C71.7453 34.3984 68.8836 26.6949 69.4183 19.0636C69.5918 16.6644 70.6468 12.6031 72.4101 9.88591C73.1472 8.74412 73.6531 9.27888 73.4218 10.9554C72.4535 18.0375 74.5347 24.3535 76.4714 28.5738C82.8164 42.3476 92.341 48.8515 98.7726 53.2453Z" fill="#FF8383"/>
<path d="M135.093 139.979C135.093 139.979 121.002 143.809 92.1099 143.809C63.2181 143.809 49.9067 139.979 49.9067 139.979V115.654L135.079 115.553V139.979H135.093Z" fill="#E2A610"/>
<path d="M131.596 137.464L114.946 140.137V120.568L131.596 117.88V137.464Z" fill="#9E740B"/>
<path d="M127.115 115.48C127.115 115.48 115.423 118.516 90.4621 118.516C65.5016 118.516 57.8848 115.48 57.8848 115.48V99.2352C57.8848 99.2352 62.6543 109.959 91.6762 107.632C122.591 105.161 127.13 89.6816 127.13 89.6816V115.48H127.115Z" fill="#A12524"/>
<path d="M127.13 110.812C127.13 114.05 111.506 116.666 92.5001 116.666C73.4942 116.666 57.8126 114.05 57.8126 110.812C57.8126 110.812 49.9067 113.934 49.9067 115.524C49.9067 119.527 68.9704 122.779 92.5001 122.779C116.03 122.779 135.093 119.527 135.093 115.524C135.093 113.92 127.13 110.566 127.13 110.812Z" fill="#FFCA28"/>
<path d="M73.6965 121.262C68.7246 120.929 65.2414 119.99 64.1719 118.675C62.5531 116.694 64.4465 115.524 66.5133 115.755C69.3172 116.073 69.7219 116.377 75.3297 116.926C81.877 117.562 86.7766 117.562 85.2301 119.513C84.1895 120.814 79.4777 121.652 73.6965 121.262Z" fill="#FFF59D"/>
<path d="M144.806 139.169C144.806 139.169 127.708 145.818 92.8901 145.818C58.0726 145.818 40.2085 139.241 40.2085 139.241L40.2663 170.778C41.6683 175.475 64.5187 179.219 92.4999 179.219C120.481 179.219 143.332 175.475 144.733 170.764L144.806 139.169Z" fill="#424242"/>
<path d="M139.473 174.247C136.452 175.562 125.135 177.716 116.319 178.221V146.699L139.516 142.956L139.473 174.247Z" fill="#212121"/>
<path d="M135.021 133.272C135.021 137.247 115.827 140.455 92.5 140.455C69.1726 140.455 49.8921 137.232 49.8921 133.272C49.8921 133.272 40.1941 137.102 40.1941 139.054C40.1941 143.968 63.6082 147.957 92.5 147.957C121.392 147.957 144.806 143.968 144.806 139.054C144.806 137.102 135.021 132.983 135.021 133.272Z" fill="#757575"/>
<path d="M80.0992 146.15C74.5059 146.309 65.0391 145.76 59.6192 144.04C54.3871 142.378 56.8008 138.562 61.4258 139.357C65.6895 140.094 72.0055 141.337 87.109 141.511C91.6328 141.554 91.8641 143.071 91.575 144.04C91.1703 145.413 89.3059 145.904 80.0992 146.15Z" fill="#90A4AE"/>
</svg>
