<svg width="185" height="185" viewBox="0 0 185 185" fill="none" xmlns="http://www.w3.org/2000/svg">
<path d="M87.6438 59.4023L56.2949 20.0609C55.8613 19.5117 55.9336 18.7168 56.4539 18.2543C57.0031 17.7774 57.827 17.8207 58.3039 18.3699L91.6473 55.9336C92.1242 56.4828 92.0809 57.3066 91.5317 57.7836L89.5371 59.5469C88.9735 60.0527 88.1063 59.9805 87.6438 59.4023ZM95.6942 59.1856L93.902 57.5957C93.3094 57.0609 93.2516 56.1504 93.7863 55.5578L126.942 18.182C127.477 17.5895 128.387 17.5316 128.98 18.0664C129.558 18.5723 129.63 19.4539 129.153 20.0609L97.7899 59.0266C97.2551 59.6481 96.3012 59.7348 95.6942 59.1856Z" fill="#455A64"/>
<path d="M68.9993 61.3679C68.9993 56.3238 80.186 52.2191 93.9887 52.2191C107.791 52.2191 118.978 56.3093 118.978 61.3679H68.9993Z" fill="#455A64"/>
<path d="M172.816 179.219H12.184C8.64297 179.219 5.78125 176.241 5.78125 172.585V65.1835C5.78125 61.5125 8.64297 58.5496 12.184 58.5496H172.83C176.357 58.5496 179.233 61.5269 179.233 65.1835V172.585C179.219 176.241 176.357 179.219 172.816 179.219Z" fill="#82AEC0"/>
<path d="M168.162 172.917H17.3003C15.9395 172.917 14.6345 172.377 13.6722 171.414C12.71 170.452 12.1694 169.147 12.1694 167.786V69.4329C12.1694 68.0721 12.71 66.767 13.6722 65.8048C14.6345 64.8426 15.9395 64.302 17.3003 64.302H168.162C169.523 64.302 170.828 64.8426 171.79 65.8048C172.752 66.767 173.293 68.0721 173.293 69.4329V167.786C173.293 169.147 172.752 170.452 171.79 171.414C170.828 172.377 169.523 172.917 168.162 172.917Z" fill="#212121"/>
<path d="M22.2433 157.481L15.3058 168.393C14.0917 170.301 15.3925 172.888 17.6472 172.903H137.391C139.95 172.888 141.612 170.2 140.499 167.902L136.163 158.97L22.2433 157.481Z" fill="#B9E4EA"/>
<path d="M137.955 152.437C136.842 157.452 133.128 161.326 128.358 162.381C120.525 164.13 105.927 166.312 81.8769 166.312C56.6273 166.312 39.6883 163.913 30.5683 162.135C25.5242 161.152 21.564 157.019 20.5812 151.686C18.3121 139.429 15.4648 114.931 20.6969 84.334C21.6652 78.6684 25.9867 74.318 31.3777 73.5809C41.1047 72.2368 58.4773 70.4446 81.8769 70.4446C104.077 70.4446 118.949 72.0633 127.375 73.3641C132.564 74.1735 136.712 78.3793 137.767 83.8282C144.025 116.059 140.571 140.615 137.955 152.437Z" fill="#2F7889" stroke="#212121" stroke-width="4" stroke-miterlimit="10"/>
<path d="M166.052 168.336H149.59C149.193 168.336 148.8 168.257 148.434 168.106C148.067 167.954 147.734 167.731 147.454 167.451C147.173 167.17 146.951 166.837 146.799 166.471C146.647 166.104 146.569 165.712 146.569 165.315V130.989C146.569 129.312 147.928 127.968 149.59 127.968H166.052C167.728 127.968 169.073 129.327 169.073 130.989V165.315C169.073 166.977 167.728 168.336 166.052 168.336Z" fill="#455A64"/>
<path d="M157.828 94.2344C163.328 94.2344 167.786 89.776 167.786 84.2762C167.786 78.7764 163.328 74.318 157.828 74.318C152.328 74.318 147.87 78.7764 147.87 84.2762C147.87 89.776 152.328 94.2344 157.828 94.2344Z" fill="#455A64"/>
<path d="M157.828 75.1273C157.062 75.1273 156.397 75.6476 156.224 76.3847L154.923 81.7324C154.518 83.3992 154.518 85.1386 154.923 86.8054L156.224 92.1531C156.313 92.511 156.52 92.8288 156.81 93.0559C157.101 93.2831 157.459 93.4064 157.828 93.4064C158.197 93.4064 158.555 93.2831 158.846 93.0559C159.137 92.8288 159.343 92.511 159.433 92.1531L160.733 86.8054C161.138 85.1433 161.138 83.409 160.733 81.7324L159.433 76.3847C159.245 75.6476 158.58 75.1273 157.828 75.1273Z" fill="#82AEC0"/>
<path d="M157.828 119.975C163.328 119.975 167.786 115.517 167.786 110.017C167.786 104.517 163.328 100.059 157.828 100.059C152.328 100.059 147.87 104.517 147.87 110.017C147.87 115.517 152.328 119.975 157.828 119.975Z" fill="#455A64"/>
<path d="M150.789 104.178C150.298 104.771 150.284 105.609 150.732 106.216L154.012 110.624C155.036 112 156.374 113.11 157.915 113.862L162.858 116.261C163.537 116.593 164.361 116.42 164.852 115.827C165.344 115.235 165.358 114.396 164.91 113.789L161.629 109.381C160.606 108.006 159.268 106.895 157.727 106.144L152.784 103.744C152.105 103.412 151.281 103.6 150.789 104.178Z" fill="#82AEC0"/>
<path d="M44.9203 80.6195C47.3484 80.3305 51.9445 80.5328 53.5632 85.4613C55.182 90.3898 51.6265 91.7195 49.7187 93.1793C44.241 97.3563 41.5238 98.9461 38.2285 103.499C35.598 107.141 31.0019 105.999 29.6289 103.6C28.5304 101.663 27.721 95.4484 30.048 91.3438C35.0632 82.5563 42.4921 80.9086 44.9203 80.6195Z" fill="url(#paint0_linear_29_60)"/>
<defs>
<linearGradient id="paint0_linear_29_60" x1="42.4271" y1="50.797" x2="40.9168" y2="105.587" gradientUnits="userSpaceOnUse">
<stop stop-color="white"/>
<stop offset="1" stop-color="white" stop-opacity="0"/>
</linearGradient>
</defs>
</svg>
