<svg width="185" height="185" viewBox="0 0 185 185" fill="none" xmlns="http://www.w3.org/2000/svg">
<g clip-path="url(#clip0_29_106)">
<path d="M185 92.5C185 143.586 143.586 185 92.5 185C41.4143 185 0 143.586 0 92.5C0 41.4143 41.4143 0 92.5 0C143.586 0 185 41.4143 185 92.5Z" fill="#E1E8ED"/>
<path d="M154.167 92.5C154.167 126.561 126.56 154.167 92.4999 154.167C58.4394 154.167 30.8333 126.561 30.8333 92.5C30.8333 58.4395 58.4394 30.8334 92.4999 30.8334C126.56 30.8334 154.167 58.4395 154.167 92.5Z" fill="#CCD6DD"/>
<path d="M149.028 92.4999C149.028 123.719 123.719 149.028 92.4999 149.028C61.2761 149.028 35.9722 123.719 35.9722 92.4999C35.9722 61.2761 61.2812 35.9722 92.4999 35.9722C123.719 35.9722 149.028 61.2761 149.028 92.4999Z" fill="#E1E8ED"/>
<path d="M5.13889 10.2778C7.97702 10.2778 10.2778 7.97702 10.2778 5.13889C10.2778 2.30076 7.97702 0 5.13889 0C2.30076 0 0 2.30076 0 5.13889C0 7.97702 2.30076 10.2778 5.13889 10.2778Z" fill="#99AAB5"/>
<path d="M0 5.13892H10.2778V41.1111H0V5.13892Z" fill="#99AAB5"/>
<path d="M25.6946 10.2778C28.5327 10.2778 30.8334 7.97702 30.8334 5.13889C30.8334 2.30076 28.5327 0 25.6946 0C22.8564 0 20.5557 2.30076 20.5557 5.13889C20.5557 7.97702 22.8564 10.2778 25.6946 10.2778Z" fill="#99AAB5"/>
<path d="M20.5557 5.13892H30.8334V41.1111H20.5557V5.13892Z" fill="#99AAB5"/>
<path d="M46.25 10.2778C49.0881 10.2778 51.3889 7.97702 51.3889 5.13889C51.3889 2.30076 49.0881 0 46.25 0C43.4118 0 41.1111 2.30076 41.1111 5.13889C41.1111 7.97702 43.4118 10.2778 46.25 10.2778Z" fill="#99AAB5"/>
<path d="M41.1112 5.13892H51.389V41.1111H41.1112V5.13892ZM15.4167 71.9445H35.9723V174.722H15.4167V71.9445Z" fill="#99AAB5"/>
<path d="M25.6945 185C31.3708 185 35.9723 180.398 35.9723 174.722C35.9723 169.046 31.3708 164.444 25.6945 164.444C20.0183 164.444 15.4167 169.046 15.4167 174.722C15.4167 180.398 20.0183 185 25.6945 185Z" fill="#99AAB5"/>
<path d="M41.1111 41.1111C41.1111 42.474 40.5697 43.7811 39.606 44.7448C38.6422 45.7086 37.3351 46.25 35.9722 46.25C34.6093 46.25 33.3022 45.7086 32.3385 44.7448C31.3748 43.7811 30.8333 42.474 30.8333 41.1111H20.5556C20.5556 42.474 20.0141 43.7811 19.0504 44.7448C18.0867 45.7086 16.7796 46.25 15.4167 46.25C14.0537 46.25 12.7467 45.7086 11.7829 44.7448C10.8192 43.7811 10.2778 42.474 10.2778 41.1111H0C0 60.978 5.13889 77.0833 25.6944 77.0833C46.25 77.0833 51.3889 60.978 51.3889 41.1111H41.1111Z" fill="#99AAB5"/>
<path d="M5.13889 46.2499C7.97702 46.2499 10.2778 43.9492 10.2778 41.1111C10.2778 38.2729 7.97702 35.9722 5.13889 35.9722C2.30076 35.9722 0 38.2729 0 41.1111C0 43.9492 2.30076 46.2499 5.13889 46.2499Z" fill="#99AAB5"/>
<path d="M25.6946 46.2499C28.5327 46.2499 30.8334 43.9492 30.8334 41.1111C30.8334 38.2729 28.5327 35.9722 25.6946 35.9722C22.8564 35.9722 20.5557 38.2729 20.5557 41.1111C20.5557 43.9492 22.8564 46.2499 25.6946 46.2499Z" fill="#99AAB5"/>
<path d="M46.25 46.2499C49.0881 46.2499 51.3889 43.9492 51.3889 41.1111C51.3889 38.2729 49.0881 35.9722 46.25 35.9722C43.4118 35.9722 41.1111 38.2729 41.1111 41.1111C41.1111 43.9492 43.4118 46.2499 46.25 46.2499Z" fill="#99AAB5"/>
<path d="M154.167 71.9445H174.722V174.722H154.167V71.9445Z" fill="#99AAB5"/>
<path d="M164.445 185C170.121 185 174.722 180.398 174.722 174.722C174.722 169.046 170.121 164.444 164.445 164.444C158.768 164.444 154.167 169.046 154.167 174.722C154.167 180.398 158.768 185 164.445 185Z" fill="#99AAB5"/>
<path d="M164.444 0C169.583 0 174.722 5.13889 174.722 15.4167V97.6389C174.722 97.6389 138.75 107.917 138.75 56.5278C138.75 25.6944 154.167 0 164.444 0Z" fill="#99AAB5"/>
</g>
<defs>
<clipPath id="clip0_29_106">
<rect width="185" height="185" fill="white"/>
</clipPath>
</defs>
</svg>
