<svg width="185" height="185" viewBox="0 0 185 185" fill="none" xmlns="http://www.w3.org/2000/svg">
<g clip-path="url(#clip0_29_51)">
<path d="M184.133 46.5391C184.133 46.5391 166.5 11.8516 161.875 9.25C157.25 6.64844 131.523 7.22656 121.984 3.46875C121.984 3.46875 110.133 17.3438 92.5 17.3438C74.8672 17.3438 63.0156 3.46875 63.0156 3.46875C53.1875 7.22656 27.75 6.64844 23.125 9.25C18.5 11.8516 0.578125 46.5391 0.578125 46.5391C10.4062 68.7969 33.5312 73.7109 33.5312 73.7109L42.7812 59.2578L38.4453 171.125C60.7031 184.133 76.8906 185 92.5 185C108.109 185 124.008 184.133 146.266 171.414L141.93 59.5469L151.18 74C151.18 73.7109 174.594 69.0859 184.133 46.5391Z" fill="#42ADE2"/>
<path d="M93.0781 20.8125C88.4531 20.8125 84.1172 19.9453 79.4922 18.2109C76.0234 16.7656 72.2656 15.0312 68.7969 12.7188C63.0156 8.96094 59.2578 4.91406 59.2578 4.91406L64.75 0.578125C64.75 0.578125 67.9297 4.04687 73.1328 7.51562C77.7578 10.4062 84.9844 14.1641 93.0781 14.1641C102.328 14.1641 111.289 9.25 119.672 0L125.164 4.33594C119.961 10.1172 114.758 14.4531 108.977 17.0547C104.062 19.3672 98.8594 20.8125 93.0781 20.8125ZM37.5781 67.6406C27.4609 66.7734 18.7891 61.8594 11.8516 52.8984C7.80469 47.6953 5.20312 42.4922 4.04688 39.6016L0 47.6953C1.44531 50.5859 3.46875 53.7656 6.07031 56.9453C10.1172 62.1484 14.7422 66.1953 19.6562 69.0859C23.9922 71.6875 28.6172 73.4219 33.8203 74L37.5781 67.6406ZM147.422 67.9297C157.539 67.0625 166.211 62.1484 173.148 53.1875C177.195 47.9844 179.797 42.7812 180.953 39.8906L185 47.6953C183.555 50.5859 181.531 53.7656 178.93 56.9453C174.883 62.1484 170.258 66.1953 165.344 69.0859C161.008 71.6875 156.094 73.4219 151.18 74L147.422 67.9297Z" fill="#22648C"/>
</g>
<defs>
<clipPath id="clip0_29_51">
<rect width="185" height="185" fill="white"/>
</clipPath>
</defs>
</svg>
