<svg width="185" height="185" viewBox="0 0 185 185" fill="none" xmlns="http://www.w3.org/2000/svg">
<path d="M16.3005 57.5041C16.3005 57.5041 17.6983 52.838 23.346 44.7032C28.9936 36.5683 43.7114 24.2864 46.3836 22.9246C49.0507 21.5627 51.3683 20.8741 53.6191 23.5823C55.3253 25.6328 65.9062 45.0783 76.0196 52.6736C88.0189 61.6821 101.133 60.4796 109.032 58.4394C111.532 57.8214 113.966 56.959 116.298 55.8648C116.298 55.8648 135.163 98.5125 138.524 107.053C139.634 109.88 140.646 112.655 141.695 115.008C145.297 123.097 151.15 129.834 157.862 135.872C164.578 141.91 170.755 145.739 172.43 147.132C174.106 148.524 190.802 158.658 181.125 173.756C181.125 173.756 143.868 168.376 107.177 143.401C78.7278 124.032 77.2221 108.235 43.2591 81.8984C20.5967 64.3337 16.3005 57.5041 16.3005 57.5041Z" fill="#C36446"/>
<path d="M79.0464 127.095C84.3189 133.185 93.3017 143.951 106.668 152.461C143.462 175.894 182.348 176.228 182.348 176.228L183.006 174.085C183.278 173.124 182.693 172.615 181.953 172.451C178.427 171.659 166.264 168.89 159.927 166.479C146.684 161.438 132.398 158.093 112.973 144.608C93.5483 131.124 84.2315 118.755 75.5982 109.397C66.9649 100.039 48.8554 82.1092 35.7872 73.0442C25.6996 66.045 19.7025 59.5084 17.4928 56.8927C16.9789 56.2863 16.3879 56.5741 15.9357 57.2267L11.4546 63.6966C11.4546 63.7017 62.6328 108.133 79.0464 127.095Z" fill="#803F29"/>
<path d="M113.071 123.462L111.504 121.268C86.3796 86.1432 62.8383 91.6367 58.3572 93.0961C57.6069 93.3428 54.8731 94.1804 54.8731 94.1804L52.6633 86.9654C52.6685 86.9654 55.279 86.1638 56.0036 85.9274C61.2504 84.2161 88.2758 77.736 115.867 114.469C118.698 113.143 123.791 110.306 129.772 104.921C128.22 100.604 124.68 91.0046 120.98 82.8954C116.021 72.0164 109.016 58.4343 109.016 58.4343C112.074 57.6327 116.283 55.8597 116.283 55.8597C116.283 55.8597 122.825 68.7429 127.845 79.7659C132.912 90.8813 137.527 104.206 137.722 104.767L138.503 107.048L136.761 108.718C125.322 119.69 116.036 122.563 115.646 122.681L113.071 123.462Z" fill="#803F29"/>
<path d="M47.3857 113.77C49.9038 113.451 54.7755 110.178 56.5484 110.486C58.3213 110.8 70.187 123.472 75.6188 129.536C81.0506 135.6 90.4291 146.016 103.6 155.153C116.771 164.295 136.504 172.25 148.869 176.927C161.233 181.603 174.301 184.209 176.973 184.337C179.65 184.466 179.491 183.576 179.979 182.621C180.468 181.665 182.343 176.223 182.343 176.223C182.343 176.223 170.791 174.686 157.414 169.552C144.038 164.419 129.572 160.945 109.911 147.301C90.2492 133.657 80.7937 121.19 72.0421 111.745C63.2906 102.305 44.9345 84.2058 31.7121 75.0278C21.5114 67.9515 16.203 61.9236 13.8391 59.3901C12.9912 58.4857 11.8863 59.0715 11.2182 60.0068L2.23032 71.8622C1.44407 72.9979 0.58074 76.2251 3.14505 78.923C5.70935 81.6312 44.8677 114.088 47.3857 113.77ZM106.987 75.2641C105.979 75.2641 105.002 74.9197 104.217 74.2882C103.432 73.6567 102.886 72.7758 102.67 71.7917C102.454 70.8076 102.581 69.7792 103.03 68.877C103.478 67.9749 104.222 67.253 105.137 66.8312L117.393 61.199C118.452 60.7408 119.649 60.7153 120.727 61.128C121.805 61.5408 122.679 62.3589 123.162 63.4075C123.644 64.456 123.698 65.6518 123.31 66.7392C122.922 67.8265 122.125 68.7191 121.088 69.2259L108.831 74.8582C108.253 75.126 107.624 75.2645 106.987 75.2641ZM114.561 90.1772C113.558 90.1777 112.584 89.8365 111.8 89.2099C111.016 88.5833 110.469 87.7086 110.248 86.7296C110.027 85.7505 110.146 84.7256 110.586 83.8232C111.025 82.9209 111.758 82.195 112.665 81.7648L124.849 75.999C125.906 75.511 127.113 75.4598 128.208 75.8565C129.302 76.2532 130.196 77.0658 130.695 78.1177C131.194 79.1696 131.257 80.3759 130.872 81.4744C130.487 82.573 129.683 83.4751 128.637 83.9848L116.452 89.7507C115.861 90.0298 115.215 90.1754 114.561 90.1772ZM121.74 105.794C120.743 105.795 119.774 105.459 118.992 104.839C118.209 104.22 117.66 103.354 117.432 102.383C117.205 101.411 117.313 100.391 117.738 99.4889C118.164 98.5865 118.883 97.8548 119.777 97.4127L131.211 91.7548C131.733 91.4815 132.304 91.3152 132.891 91.2657C133.477 91.2161 134.068 91.2844 134.628 91.4664C135.188 91.6484 135.706 91.9405 136.152 92.3255C136.598 92.7105 136.962 93.1807 137.223 93.7085C137.484 94.2362 137.637 94.8108 137.674 95.3986C137.71 95.9864 137.628 96.5754 137.433 97.1312C137.238 97.6869 136.934 98.1981 136.539 98.6348C136.144 99.0714 135.666 99.4247 135.132 99.6739L123.698 105.332C123.091 105.638 122.42 105.796 121.74 105.794Z" fill="#292F33"/>
</svg>
