<svg width="185" height="185" viewBox="0 0 185 185" fill="none" xmlns="http://www.w3.org/2000/svg">
<path d="M92.4278 5.86792C41.0903 5.14526 2.96296 49.1117 5.52117 96.1277C8.54187 151.498 48.129 179.32 94.4368 179.002C143.086 178.669 179.999 144.184 178.988 92.0953C177.99 40.0929 139.747 6.54721 92.4278 5.86792Z" fill="#C8C8C8"/>
<path d="M51.8288 21.9832C15.8983 42.5789 -6.9087 100.955 31.3632 145.124C36.046 150.529 43.4893 154.302 49.1405 156.874C87.7304 174.319 134.428 147.494 152.495 127.043C166.832 110.812 172.108 100.044 170.402 77.8878C169.087 60.6597 161.716 44.0242 146.439 31.7246C111.896 3.85894 74.6503 8.88863 51.8288 21.9832Z" fill="white"/>
<path d="M88.0196 57.509C87.8896 57.4367 74.5204 49.7621 64.1431 45.9176C53.3321 41.9141 45.354 39.7606 45.2673 39.7461L46.756 34.1672C47.0884 34.2539 55.0665 36.393 66.1521 40.5121C76.9919 44.5301 90.3466 52.1903 90.9103 52.5227L88.0196 57.509ZM111.531 42.4257L119.397 14.3549L124.965 15.9143L117.099 43.9852L111.531 42.4257ZM169.969 78.7985C169.897 78.7695 162.208 75.85 153.622 73.5231C147.162 71.7742 138.837 69.9965 138.75 69.982L139.95 64.3309C140.297 64.4031 148.506 66.152 155.125 67.9442C164.014 70.3434 171.703 73.2774 172.036 73.393L169.969 78.7985ZM124.485 135.513C124.485 135.426 123.762 126.609 122.028 117.591C120.308 108.688 117.027 100.305 116.998 100.232L122.375 98.1078C122.519 98.4692 125.887 107.054 127.708 116.507C129.5 125.858 130.223 134.689 130.252 135.064L124.485 135.513ZM153.232 143.548L149.417 139.198C149.474 139.155 155.024 134.241 161.875 124.991C168.206 116.434 171.125 108.948 171.154 108.861L176.545 110.928C176.415 111.26 173.308 119.238 166.515 128.416C159.274 138.215 153.478 143.332 153.232 143.548ZM47.4743 114.006L80.9231 84.1504L84.7735 88.4633L51.3231 118.319L47.4743 114.006ZM18.6591 106.014C18.5724 105.45 16.6646 92.0809 16.6646 79.8535C16.6646 67.6551 18.0521 56.3672 18.1243 55.8902L23.8622 56.6129C23.8478 56.7285 22.4603 68.0309 22.4603 79.8535C22.4603 91.6473 24.3825 105.06 24.397 105.19L18.6591 106.014ZM103.051 164.26C102.69 164.216 93.8731 163.104 78.6251 158.623C68.9126 155.761 57.8126 149.893 57.3356 149.648L60.0528 144.546C60.1685 144.604 71.1095 150.399 80.2583 153.088C95.0005 157.423 103.672 158.522 103.759 158.536L103.051 164.26Z" fill="#171717"/>
<path d="M77.1362 47.2906C76.6882 48.4179 77.2808 88.6699 78.1913 89.8695C79.1019 91.0691 119.571 104.814 121.377 104.366C123.184 103.918 144.777 69.9386 144.777 68.5801C144.777 67.2215 118.212 34.4562 116.853 34.1527C115.495 33.8492 77.7433 45.773 77.1362 47.2906ZM169.622 52.2336C169.622 52.2336 163.667 72.0488 163.667 73.5664C163.667 75.0695 167.295 83.3801 168.957 93.6418C170.619 103.903 168.205 119.311 169.26 119.918C170.316 120.525 175.548 120.221 175.548 120.221C175.548 120.221 180.592 104.366 178.467 83.9871C176.342 63.5937 169.622 52.2336 169.622 52.2336ZM126.667 131.09C125.453 131.205 93.5983 158.565 93.7429 159.331C93.8874 160.083 106.216 178.25 106.216 178.25C106.216 178.25 121.71 177.022 135.903 169.333C150.096 161.644 155.487 154.807 155.487 154.807C155.487 154.807 157.452 136.539 156.701 136.394C155.964 136.221 128.185 130.945 126.667 131.09ZM20.3644 96.966C19.5405 97.6453 14.771 108.138 13.4124 114.035C12.0538 119.918 11.3022 125.511 11.3022 125.511C11.3022 125.511 14.93 136.004 20.3644 143.78C27.0995 153.405 35.8581 160.198 35.8581 160.198C35.8581 160.198 64.4464 151.483 64.6054 150.269C64.7644 149.055 61.2812 138.49 58.8675 129.731C56.4538 120.973 56.0058 111.159 55.0952 110.552C54.1847 109.945 44.978 107.083 37.737 104.207C30.496 101.331 21.2749 96.2144 20.3644 96.966ZM11.4034 60.5297C11.4034 60.5297 19.3093 67.366 20.5233 67.366C21.7374 67.366 29.3976 57.2199 37.13 51.0629C47.5507 42.7523 52.6815 40.0351 52.8405 38.9801C52.9851 37.925 57.5233 12.7043 57.5233 12.7043C57.5233 12.7043 40.7577 19.0492 28.5304 33.0832C16.303 47.1172 11.4034 60.5297 11.4034 60.5297ZM96.9081 5.96912C96.9081 5.96912 106.548 10.9265 110.06 13.3691C113.573 15.8117 118.747 20.9859 120.279 21.1449C121.796 21.3039 142.768 21.3183 142.768 21.3183C142.768 21.3183 133.258 14.8144 122.721 11.0855C110.046 6.5906 96.9081 5.96912 96.9081 5.96912Z" fill="#474C4F"/>
</svg>
