<svg width="185" height="185" viewBox="0 0 185 185" fill="none" xmlns="http://www.w3.org/2000/svg">
<path d="M164.693 142.638C160.849 135.44 153.608 133.691 145.688 135.325C145.543 135.354 145.37 135.397 145.196 135.455C147.465 131.364 149.214 127.361 149.489 119.975C150.139 101.793 142.638 92.8613 134.862 86.2563C118.747 72.5692 72.1645 77.0785 71.4418 77.1074C65.4582 77.3531 57.1188 81.0098 52.5949 84.9988C42.6223 93.6852 34.9332 105.927 34.3695 119.426C34.066 124.311 34.9188 130.107 37.2457 134.79C30.9875 134.009 24.368 136.163 20.2344 143.534C16.8813 149.503 17.8352 156.816 21.4773 163.552C26.4059 172.686 37.607 181.314 48.6926 178.756C59.9371 176.169 69.693 165.026 79.6223 159.143C80.3305 158.724 81.1688 158.58 81.9926 158.666C88.1785 159.375 96.8793 159.375 102.343 158.782C103.484 158.666 104.612 159.042 105.421 159.837C106.447 160.849 107.473 161.803 107.849 162.15C114.079 167.888 121.204 174.088 129.124 177.253C142.537 182.601 155.848 176.617 163.06 163.812C166.847 157.077 168.509 149.763 164.693 142.638Z" fill="#A65F3E"/>
<path d="M122.649 152.004C122.013 152.004 121.363 151.946 120.712 151.83C114.859 150.746 111.376 144.921 110.957 139.718C110.537 134.457 112.561 129.471 114.584 125.294C114.946 124.543 118.704 117.648 119.715 112.966C121.233 105.898 119.961 99.4519 119.513 96.5758C119.065 93.6851 121.262 94.1765 122.216 96.2433C124.557 101.316 124.976 108.413 123.921 113.833C122.953 118.79 118.805 126.421 118.443 127.173C116.666 130.844 114.888 135.151 115.22 139.386C115.495 142.869 117.779 146.93 121.479 147.61C125.482 148.347 128.691 146.902 132.073 143.809L135.715 145.196C133.041 147.653 128.257 152.004 122.649 152.004ZM66.4121 117.721C65.5449 113.023 64.9379 107.083 67.8863 102.877L65.7328 98.7293C60.2695 104.265 61.1656 112.966 62.1918 118.487C62.3219 119.224 64.4465 130.093 63.2758 134.371C61.9316 139.285 57.5668 143.23 52.5949 144.242C49.9066 139.95 45.8742 136.871 41.4227 135.079C37.0867 133.33 30.8574 133.807 27.3164 136.394C31.132 135.339 35.5836 135.585 39.3125 137.362C44.5012 139.82 47.7098 143.187 50.6438 150.341C51.6121 152.697 52.3781 156.455 54.6184 155.805C55.9047 155.443 56.9164 154.143 56.425 152.076C55.9047 149.893 55.1242 148.405 55.1242 148.405C55.1242 148.405 63.0445 147.046 67.4238 135.498C69.6641 129.572 66.5566 118.443 66.4121 117.721Z" fill="#703B26"/>
<path d="M132.159 155.443C131.74 156.224 131.148 156.831 130.295 156.816C128.98 156.802 128.141 155.255 128.127 153.926C128.069 143.462 139.53 133.908 150.081 134.761C141.828 136.524 135.729 143.259 132.781 153.911C132.636 154.417 132.419 154.952 132.159 155.443ZM78.0757 116.102L74.896 112.648C80.0991 107.69 87.1956 100.868 88.4241 94.7113L92.63 95.5496C91.2569 102.458 85.3745 110.798 80.0991 116.145C79.5354 116.723 78.6105 116.695 78.0757 116.102Z" fill="#703B26"/>
<path d="M103.181 94.1477C111.925 92.2399 118.313 86.8778 118.718 80.186L71.1383 77.3098C70.8348 82.4118 74.0723 87.1668 79.3766 90.4332C72.7715 91.5606 68.2622 93.2516 66.3399 94.061C65.2848 94.509 64.5911 95.5352 64.5911 96.6915C64.6055 102.169 70.459 113.356 74.6649 114.035C78.8274 114.715 88.2075 102.632 91.6618 97.4286C91.6618 105.522 92.8758 119.831 95.304 120.958C100.232 123.227 115.842 114.787 116.304 110.379C116.666 106.924 109.743 100.16 103.181 94.1477Z" fill="#FFCA28"/>
<path d="M144.806 28.1836C144.445 21.9976 140.325 16.4765 134.501 14.3808C129.775 12.6898 125.048 13.2824 121.247 15.4214C119.513 16.3898 117.432 16.5488 115.639 15.6527C112.864 14.2652 108.052 12.3863 101.201 11.5191C94.3789 10.6519 89.1035 11.4035 85.9383 12.155C83.8859 12.6464 81.7758 11.9238 80.2871 10.4207C78.8025 8.93984 77.0395 7.76751 75.0997 6.97124C73.1599 6.17498 71.0816 5.77053 68.9848 5.78121C61.5703 5.78121 54.9942 11.1867 53.5199 18.4566C52.5949 22.9804 53.6789 27.3742 56.107 30.7851C58.2172 33.7769 58.6363 37.6937 57.2777 41.1047C55.9047 44.5445 53.2887 52.1035 53.3465 56.2949C53.5633 74.5781 70.1988 84.0593 92.1965 86.8488C114.194 89.6382 133.865 82.773 137.565 63.8539C138.403 59.5757 138.172 53.9824 137.435 49.791C136.828 46.3367 137.97 42.7668 140.412 40.2375C143.332 37.2023 145.095 32.9675 144.806 28.1836Z" fill="#A65F3E"/>
<path d="M59.7636 22.6625C60.3561 18.0519 64.3597 14.7711 68.739 15.3203C70.4011 15.5371 75.3874 17.4882 73.6819 20.0898C73.364 20.5668 72.887 20.8992 72.4245 21.2316C69.2869 23.5068 66.518 26.2513 64.2151 29.3687C63.796 29.9468 63.16 30.5972 62.5386 30.3226C60.3417 29.3832 59.5034 24.7726 59.7636 22.6625ZM137.724 32.5629C138.316 27.9523 135.238 23.7609 130.873 23.2117C129.211 22.9949 123.892 23.6453 124.904 26.5937C125.092 27.1429 125.467 27.5765 125.829 28.0246C128.271 30.973 130.28 34.3406 131.74 37.9683C132 38.6332 132.448 39.4281 133.128 39.3125C135.483 38.9367 137.449 34.6875 137.724 32.5629Z" fill="#874D36"/>
<path opacity="0.7" d="M89.537 47.9411C85.2733 52.8407 82.0647 55.6157 79.044 59.9371C73.9132 67.2793 77.4831 80.0414 92.0229 81.9348C102.155 83.25 110.884 78.4516 111.058 68.7536C111.173 62.611 105.753 54.4161 102.95 49.1262C99.4519 42.5645 93.9741 42.8391 89.537 47.9411Z" fill="#F29657"/>
<path opacity="0.55" d="M82.4019 46.3377C82.9395 42.5603 80.7743 39.1279 77.5659 38.6713C74.3574 38.2146 71.3206 40.9067 70.783 44.6841C70.2454 48.4616 72.4105 51.894 75.619 52.3506C78.8275 52.8072 81.8642 50.1152 82.4019 46.3377Z" fill="black"/>
<path opacity="0.55" d="M122.269 51.4057C122.807 47.6283 120.642 44.1959 117.433 43.7393C114.225 43.2826 111.188 45.9747 110.65 49.7521C110.113 53.5296 112.278 56.962 115.486 57.4186C118.695 57.8752 121.732 55.1832 122.269 51.4057Z" fill="black"/>
<path opacity="0.55" d="M83.2356 68.2477C85.9817 76.3559 99.5098 78.1192 104.352 70.9504" stroke="black" stroke-width="2.446" stroke-miterlimit="10" stroke-linecap="round"/>
<path opacity="0.55" d="M97.9632 69.1293C94.48 69.8953 90.939 69.2883 88.6121 66.3688C86.8632 64.1863 85.0566 60.5297 87.5425 57.9426C91.0691 54.3293 99.8421 55.4133 103.022 58.9977C104.828 62.0473 101.259 68.4356 97.9632 69.1293Z" fill="black"/>
<path opacity="0.7" d="M23.4142 153.998C23.4575 151.353 25.4521 147.509 27.938 146.584C33.8638 144.343 40.3099 147.046 43.8798 155.154C46.8282 161.861 47.1173 168.899 45.8599 170.793C43.9954 173.582 41.2782 173.134 39.3993 172.802C35.9739 172.195 32.9966 170.128 30.3083 167.902C27.5767 165.633 23.2985 161.037 23.4142 153.998ZM161.528 153.882C161.442 151.238 159.389 147.436 156.903 146.526C150.949 144.372 144.531 147.162 141.092 155.328C138.244 162.077 138.562 168.278 138.952 169.593C140.167 173.654 143.968 173.264 145.832 172.903C149.243 172.238 152.192 170.128 154.851 167.873C157.554 165.589 161.745 160.936 161.528 153.882Z" fill="#F29657"/>
</svg>
