<svg width="185" height="185" viewBox="0 0 185 185" fill="none" xmlns="http://www.w3.org/2000/svg">
<path d="M115.214 60.8804L133.611 10.2778C133.611 10.2778 131.566 10.2881 128.472 10.4525V0H118.194V11.4032C106.524 12.9551 92.5 16.686 92.5 25.6944C92.5 16.686 78.476 12.9551 66.8056 11.4032V0H56.5278V10.4525C53.4342 10.2881 51.3889 10.2778 51.3889 10.2778L69.7913 60.8804L5.13892 131.777C5.13892 131.777 35.9723 185 92.5 185C149.028 185 179.861 131.777 179.861 131.777L115.214 60.8804Z" fill="#55ACEE"/>
<path d="M66.8055 56.5278H118.194V66.8056H66.8055V56.5278Z" fill="#BBDDF5"/>
<path d="M77.0834 66.8055C77.0834 66.8055 42.4781 108.461 51.1269 113.086C59.7807 117.717 77.0834 66.8055 77.0834 66.8055ZM108.41 66.8055C108.41 66.8055 143.015 108.456 134.367 113.092C125.713 117.717 108.41 66.8055 108.41 66.8055ZM92.5 66.8055C92.5 66.8055 82.2223 123.333 92.5 123.333C102.778 123.333 92.5 66.8055 92.5 66.8055Z" fill="#3B88C3"/>
</svg>
