<svg width="105" height="121" viewBox="0 0 105 121" fill="none" xmlns="http://www.w3.org/2000/svg">
<path fill-rule="evenodd" clip-rule="evenodd" d="M66.3319 6.98738C75.5812 3.01379 79.2327 4.61922 83.3547 13.3727L95.1136 39.1387C97.0109 43.2228 97.0805 45.4675 95.508 49.371L73.9384 108.905C72.0388 113.704 70.3962 114.867 65.9935 113.043L16.4727 94.468C11.2906 93.117 10.3449 91.2868 12.5532 85.8792L33.9336 26.8675C35.5376 22.5162 37.1601 20.6299 41.6552 18.4931C48.2998 15.1827 56.2001 11.5984 61.6076 9.14497C63.5707 8.25431 65.2052 7.51271 66.3319 6.98738ZM72.4188 17.6132C74.6979 18.4681 77.2232 17.2907 78.0592 14.9833C78.8952 12.676 77.7252 10.1125 75.4461 9.25755C73.167 8.40264 70.6417 9.58008 69.8057 11.8874C68.9697 14.1948 70.1397 16.7583 72.4188 17.6132Z" fill="#254A83"/>
<path fill-rule="evenodd" clip-rule="evenodd" d="M66.7614 5.99695C76.7516 3.10797 80.3009 5.18189 83.4443 14.5523L92.3125 42.0885C93.7525 46.4574 93.5449 48.7391 91.4449 52.4991L61.8958 110.142C59.3485 114.769 57.5175 115.745 53.2242 113.358L4.69216 88.4696C-0.460219 86.4655 -1.2035 84.496 1.73623 79.2907L31.0261 22.1536C33.2141 17.9438 35.1145 16.2327 39.9953 14.6205C47.2289 12.0835 55.7858 9.4231 61.6427 7.60216C63.7689 6.94111 65.5393 6.39068 66.7614 5.99695ZM71.6892 17.5047C73.9228 18.6501 76.6619 17.7676 77.8072 15.5336C78.9524 13.2995 78.0701 10.5599 75.8365 9.41442C73.6028 8.26896 70.8637 9.15145 69.7185 11.3855C68.5733 13.6196 69.4556 16.3592 71.6892 17.5047Z" fill="#3280DE"/>
<path d="M69.662 71.5417L73.0722 69.3487L72.2796 49.3699L81.6578 43.3393C83.073 42.4292 83.481 40.5519 82.5711 39.1364C81.6612 37.7209 79.7842 37.3128 78.369 38.2229L68.9908 44.2536L51.1469 35.2396L47.7366 37.4326L61.3177 49.1877L51.9395 55.2184L46.6412 52.5994L44.0835 54.2442L50.1737 59.9695L52.8536 67.8878L55.4113 66.2431L55.2283 60.3347L64.6065 54.3041L69.662 71.5417Z" fill="white"/>
<path fill-rule="evenodd" clip-rule="evenodd" d="M10.8143 91.5428L4.67214 88.393C-0.480239 86.3889 -1.22351 84.4193 1.71621 79.2141L1.75203 79.1442L47.471 56.8672L51.0169 59.4338L51.7023 63.5382L10.8143 91.5428Z" fill="white"/>
<circle cx="77.4004" cy="7.23299" r="6.37505" stroke="#1B2E50" stroke-width="1.708"/>
<path d="M72.5065 4.82949L70.3806 5.12038C69.5544 7.3468 70.1133 8.6161 70.6978 10.0871C71.2546 9.67654 71.6097 9.4872 72.2621 9.16761C72.4751 7.60718 72.0023 6.50969 72.5065 4.82949Z" fill="#3280DE"/>
</svg>
